<svg xmlns="http://www.w3.org/2000/svg" viewBox="0 0 212.11 55.64"><defs><style>.a{fill:#f39322;}.b{fill:#fff;}.c{fill:#3677cc;}</style></defs><path class="a" d="M54.8,34.55A27.81,27.81,0,1,1,34.54.83,27.83,27.83,0,0,1,54.8,34.55Z"/><path class="b" d="M40.08,23.86c.56-3.71-2.26-5.7-6.12-7l1.25-5-3.05-.76-1.22,4.88c-.8-.2-1.62-.38-2.44-.57l1.22-4.92-3-.76-1.25,5-2-.46v0l-4.21-1.05-.81,3.26s2.26.52,2.21.55a1.62,1.62,0,0,1,1.42,1.78l-1.42,5.71a1.89,1.89,0,0,1,.32.1l-.32-.08-2,8a1.12,1.12,0,0,1-1.4.73s-2.22-.55-2.22-.55l-1.51,3.49,4,1,2.18.56-1.27,5.07,3,.76,1.25-5,2.43.63-1.24,5,3.05.76,1.26-5.06c5.21,1,9.12.59,10.77-4.12,1.33-3.79-.07-6-2.81-7.4A4.86,4.86,0,0,0,40.08,23.86Zm-7,9.78c-1,3.79-7.33,1.74-9.4,1.22l1.68-6.72C27.46,28.66,34.09,29.68,33.11,33.64Zm.94-9.84c-.86,3.45-6.17,1.7-7.89,1.27L27.68,19C29.4,19.4,35,20.21,34.05,23.8Z"/><path class="c" d="M84.53,9.57v7.3H78.89v29.2H69.4V16.87H63.78V9.57Z"/><path class="c" d="M95.53,9.57v8.21a8.16,8.16,0,0,1,2.53-1.63,7.89,7.89,0,0,1,2.92-.54,6.75,6.75,0,0,1,4.07,1.22,4.84,4.84,0,0,1,2,2.81,29.41,29.41,0,0,1,.38,5.8V46.07H98.37V25a13.28,13.28,0,0,0-.26-3.36,1.25,1.25,0,0,0-2.29,0,10.32,10.32,0,0,0-.29,3V46.07H86.42V9.57Z"/><path class="c" d="M131.24,31.64H119.45v6.47a7.37,7.37,0,0,0,.29,2.62,1.14,1.14,0,0,0,1.13.58,1.39,1.39,0,0,0,1.39-.77,8.62,8.62,0,0,0,.35-3v-4h8.63v2.21a19.94,19.94,0,0,1-.35,4.26,8.75,8.75,0,0,1-1.63,3.18A8.06,8.06,0,0,1,126,45.77a12.72,12.72,0,0,1-5,.84,14.58,14.58,0,0,1-5.1-.83,8.18,8.18,0,0,1-3.43-2.29,8.37,8.37,0,0,1-1.71-3.2,21,21,0,0,1-.47-5.09V26.48a14.79,14.79,0,0,1,1.06-6.19,7.26,7.26,0,0,1,3.47-3.47,12.19,12.19,0,0,1,5.55-1.21,12.5,12.5,0,0,1,6.32,1.45,8,8,0,0,1,3.5,3.86,18,18,0,0,1,1,6.75Zm-9.13-4.87V24.58a10.76,10.76,0,0,0-.25-3,1,1,0,0,0-1-.68c-.63,0-1,.19-1.18.57a12.15,12.15,0,0,0-.22,3.1v2.19Z"/><path class="a" d="M154.6,20.62h-8.82V17.91a5.21,5.21,0,0,0-.34-2.41,1.22,1.22,0,0,0-1.12-.52,1.43,1.43,0,0,0-1.3.7,4.09,4.09,0,0,0-.44,2.12,6,6,0,0,0,.5,2.75,7,7,0,0,0,2.68,2.23q6.33,3.76,8,6.18t1.65,7.78a13.64,13.64,0,0,1-.92,5.75,7.15,7.15,0,0,1-3.52,3.1,14.06,14.06,0,0,1-6.09,1.25,13.55,13.55,0,0,1-6.51-1.45,7,7,0,0,1-3.52-3.67,18.74,18.74,0,0,1-.84-6.34V33h8.82v4.45a5.81,5.81,0,0,0,.37,2.63,1.45,1.45,0,0,0,1.32.59,1.56,1.56,0,0,0,1.41-.74,4.36,4.36,0,0,0,.46-2.21c0-2.15-.29-3.56-.88-4.22a27.56,27.56,0,0,0-4.44-3.31,44.34,44.34,0,0,1-4.69-3.41,8,8,0,0,1-1.91-2.93,13,13,0,0,1-.75-4.78,13.28,13.28,0,0,1,1.07-6.13,7.17,7.17,0,0,1,3.46-3A13.78,13.78,0,0,1,144,8.8a14.94,14.94,0,0,1,6.3,1.2,6.54,6.54,0,0,1,3.45,3,15.76,15.76,0,0,1,.85,6.16Z"/><path class="a" d="M167.85,9.57v36.5h-9.49V9.57Z"/><path class="a" d="M201,9.57v36.5h-8.3V21.43l-3.3,24.64h-5.88L180,22V46.07h-8.3V9.57H184c.36,2.19.74,4.78,1.12,7.76l1.35,9.28,2.18-17Z"/><path class="c" d="M202.72,7.63V9.57h-1.79V7.63Z"/><path class="c" d="M205.8.08V1.32h-2.44V.08Zm0,1.71V9.57h-2.44V1.79Z"/><path class="c" d="M209.05,1.79l0,.72a1.68,1.68,0,0,1,.63-.64,1.83,1.83,0,0,1,1.86.07,1.29,1.29,0,0,1,.5.72,7,7,0,0,1,.11,1.46V9.57h-2.37V4.18a5.71,5.71,0,0,0-.05-1,.28.28,0,0,0-.3-.17.29.29,0,0,0-.31.2A4.55,4.55,0,0,0,209,4.31V9.57h-2.36V1.79Z"/></svg>